<?xml version="1.0" encoding="UTF-8"?>
<svg xmlns="http://www.w3.org/2000/svg" xmlns:xlink="http://www.w3.org/1999/xlink" width="12px" height="12px" viewBox="0 0 12 12" version="1.1">
<g id="surface1">
<path style=" stroke:none;fill-rule:nonzero;fill:rgb(0%,0%,0%);fill-opacity:1;" d="M 5.867188 0.0742188 C 5.828125 0.117188 5.824219 0.171875 5.816406 0.777344 C 5.8125 1.140625 5.820312 1.519531 5.832031 1.621094 C 5.871094 1.953125 6.039062 2.191406 6.324219 2.328125 C 6.457031 2.386719 6.5 2.398438 6.792969 2.410156 C 7.070312 2.425781 7.128906 2.433594 7.210938 2.484375 C 7.410156 2.59375 7.472656 2.761719 7.476562 3.144531 C 7.476562 3.484375 7.445312 3.601562 7.316406 3.730469 C 7.179688 3.863281 7.09375 3.890625 6.78125 3.890625 C 6.429688 3.890625 6.230469 3.964844 6.035156 4.164062 C 5.984375 4.214844 5.917969 4.3125 5.886719 4.382812 C 5.832031 4.492188 5.824219 4.550781 5.816406 4.773438 L 5.808594 5.039062 L 5.65625 5.039062 C 5.480469 5.039062 5.351562 5.09375 5.28125 5.195312 C 5.246094 5.246094 5.234375 5.316406 5.226562 5.542969 L 5.214844 5.824219 L 2.835938 5.835938 C 0.574219 5.847656 0.453125 5.851562 0.375 5.890625 C 0.238281 5.964844 0.0976562 6.117188 0.046875 6.253906 C 0 6.371094 0 6.4375 0 8.90625 C 0 11.386719 0 11.4375 0.046875 11.5625 C 0.109375 11.722656 0.226562 11.847656 0.394531 11.925781 L 0.527344 11.988281 L 11.472656 11.988281 L 11.605469 11.925781 C 11.773438 11.847656 11.890625 11.722656 11.953125 11.5625 C 12 11.4375 12 11.386719 12 8.90625 C 12 6.4375 12 6.371094 11.953125 6.253906 C 11.898438 6.105469 11.753906 5.953125 11.601562 5.886719 C 11.5 5.839844 11.453125 5.835938 10.472656 5.835938 C 9.53125 5.835938 9.445312 5.839844 9.402344 5.878906 C 9.332031 5.933594 9.328125 6.054688 9.394531 6.125 C 9.445312 6.175781 9.453125 6.175781 10.445312 6.183594 C 11.410156 6.191406 11.445312 6.191406 11.511719 6.238281 C 11.65625 6.339844 11.648438 6.183594 11.648438 8.90625 C 11.648438 11.617188 11.65625 11.464844 11.515625 11.574219 L 11.453125 11.625 L 0.546875 11.625 L 0.484375 11.574219 C 0.34375 11.464844 0.351562 11.617188 0.351562 8.90625 C 0.351562 6.183594 0.34375 6.339844 0.488281 6.238281 L 0.558594 6.1875 L 4.605469 6.183594 L 8.652344 6.175781 L 8.699219 6.121094 C 8.757812 6.050781 8.753906 5.941406 8.695312 5.882812 C 8.652344 5.839844 8.617188 5.835938 7.714844 5.835938 L 6.777344 5.835938 L 6.769531 5.558594 C 6.761719 5.316406 6.753906 5.265625 6.710938 5.210938 C 6.617188 5.082031 6.546875 5.050781 6.347656 5.042969 L 6.164062 5.035156 L 6.164062 4.824219 C 6.164062 4.597656 6.191406 4.519531 6.300781 4.398438 C 6.414062 4.273438 6.476562 4.257812 6.835938 4.242188 C 7.136719 4.226562 7.175781 4.222656 7.316406 4.15625 C 7.679688 3.984375 7.828125 3.695312 7.828125 3.152344 C 7.828125 2.65625 7.714844 2.386719 7.429688 2.203125 C 7.273438 2.101562 7.109375 2.0625 6.84375 2.0625 C 6.574219 2.0625 6.46875 2.035156 6.359375 1.941406 C 6.199219 1.796875 6.203125 1.808594 6.1875 0.921875 C 6.175781 0.179688 6.171875 0.121094 6.132812 0.0742188 C 6.070312 0.00390625 5.929688 0.00390625 5.867188 0.0742188 Z M 6.421875 5.613281 L 6.421875 5.835938 L 5.578125 5.835938 L 5.578125 5.390625 L 6.421875 5.390625 Z M 6.421875 5.613281 "/>
<path style=" stroke:none;fill-rule:nonzero;fill:rgb(0%,0%,0%);fill-opacity:1;" d="M 0.921875 6.695312 C 0.769531 6.769531 0.761719 6.804688 0.761719 7.292969 C 0.761719 7.699219 0.765625 7.738281 0.8125 7.796875 C 0.910156 7.933594 0.972656 7.949219 1.464844 7.941406 C 2.105469 7.929688 2.109375 7.925781 2.109375 7.296875 C 2.109375 6.671875 2.09375 6.65625 1.429688 6.65625 C 1.082031 6.65625 0.980469 6.664062 0.921875 6.695312 Z M 1.757812 7.300781 L 1.757812 7.59375 L 1.125 7.59375 L 1.125 7.007812 L 1.757812 7.007812 Z M 1.757812 7.300781 "/>
<path style=" stroke:none;fill-rule:nonzero;fill:rgb(0%,0%,0%);fill-opacity:1;" d="M 2.445312 6.695312 C 2.292969 6.769531 2.285156 6.804688 2.285156 7.289062 C 2.285156 7.675781 2.289062 7.730469 2.328125 7.796875 C 2.40625 7.925781 2.445312 7.933594 2.953125 7.933594 C 3.628906 7.933594 3.617188 7.941406 3.628906 7.324219 C 3.636719 6.667969 3.625 6.65625 2.953125 6.65625 C 2.605469 6.65625 2.503906 6.664062 2.445312 6.695312 Z M 3.28125 7.300781 L 3.28125 7.597656 L 2.960938 7.589844 L 2.636719 7.582031 L 2.628906 7.292969 L 2.621094 7.007812 L 3.28125 7.007812 Z M 3.28125 7.300781 "/>
<path style=" stroke:none;fill-rule:nonzero;fill:rgb(0%,0%,0%);fill-opacity:1;" d="M 3.972656 6.6875 C 3.933594 6.707031 3.878906 6.75 3.855469 6.789062 C 3.8125 6.847656 3.808594 6.898438 3.808594 7.300781 C 3.808594 7.945312 3.796875 7.933594 4.476562 7.933594 C 5.15625 7.933594 5.144531 7.945312 5.144531 7.300781 C 5.144531 6.652344 5.148438 6.65625 4.472656 6.65625 C 4.167969 6.660156 4.023438 6.667969 3.972656 6.6875 Z M 4.804688 7.300781 L 4.804688 7.597656 L 4.484375 7.589844 L 4.160156 7.582031 L 4.152344 7.292969 L 4.144531 7.007812 L 4.804688 7.007812 Z M 4.804688 7.300781 "/>
<path style=" stroke:none;fill-rule:nonzero;fill:rgb(0%,0%,0%);fill-opacity:1;" d="M 5.496094 6.6875 C 5.457031 6.707031 5.402344 6.75 5.378906 6.789062 C 5.335938 6.847656 5.332031 6.898438 5.332031 7.300781 C 5.332031 7.945312 5.320312 7.933594 6 7.933594 C 6.679688 7.933594 6.667969 7.945312 6.667969 7.300781 C 6.667969 6.652344 6.671875 6.65625 5.996094 6.65625 C 5.691406 6.660156 5.546875 6.667969 5.496094 6.6875 Z M 6.328125 7.300781 L 6.328125 7.59375 L 5.671875 7.59375 L 5.671875 7.007812 L 6.328125 7.007812 Z M 6.328125 7.300781 "/>
<path style=" stroke:none;fill-rule:nonzero;fill:rgb(0%,0%,0%);fill-opacity:1;" d="M 7.015625 6.691406 C 6.867188 6.753906 6.855469 6.800781 6.855469 7.300781 C 6.855469 7.945312 6.84375 7.933594 7.523438 7.933594 C 8.203125 7.933594 8.191406 7.945312 8.191406 7.300781 C 8.191406 6.652344 8.195312 6.65625 7.519531 6.65625 C 7.207031 6.660156 7.070312 6.667969 7.015625 6.691406 Z M 7.847656 7.292969 L 7.839844 7.582031 L 7.519531 7.589844 L 7.195312 7.597656 L 7.195312 7.007812 L 7.855469 7.007812 Z M 7.847656 7.292969 "/>
<path style=" stroke:none;fill-rule:nonzero;fill:rgb(0%,0%,0%);fill-opacity:1;" d="M 8.53125 6.699219 C 8.382812 6.769531 8.363281 6.84375 8.371094 7.324219 C 8.382812 7.941406 8.371094 7.933594 9.046875 7.933594 C 9.554688 7.933594 9.59375 7.925781 9.671875 7.796875 C 9.710938 7.730469 9.714844 7.675781 9.714844 7.289062 C 9.714844 6.660156 9.710938 6.65625 9.042969 6.65625 C 8.679688 6.65625 8.601562 6.664062 8.53125 6.699219 Z M 9.371094 7.292969 L 9.363281 7.582031 L 9.042969 7.589844 L 8.71875 7.597656 L 8.71875 7.007812 L 9.378906 7.007812 Z M 9.371094 7.292969 "/>
<path style=" stroke:none;fill-rule:nonzero;fill:rgb(0%,0%,0%);fill-opacity:1;" d="M 10.054688 6.699219 C 9.910156 6.769531 9.890625 6.847656 9.890625 7.296875 C 9.890625 7.925781 9.894531 7.929688 10.535156 7.941406 C 11.027344 7.949219 11.089844 7.933594 11.1875 7.796875 C 11.234375 7.738281 11.238281 7.699219 11.238281 7.292969 C 11.238281 6.660156 11.234375 6.65625 10.566406 6.65625 C 10.203125 6.65625 10.125 6.664062 10.054688 6.699219 Z M 10.875 7.300781 L 10.875 7.59375 L 10.242188 7.59375 L 10.242188 7.007812 L 10.875 7.007812 Z M 10.875 7.300781 "/>
<path style=" stroke:none;fill-rule:nonzero;fill:rgb(0%,0%,0%);fill-opacity:1;" d="M 0.917969 8.382812 C 0.777344 8.453125 0.761719 8.515625 0.761719 8.988281 C 0.761719 9.359375 0.765625 9.417969 0.804688 9.484375 C 0.890625 9.621094 0.882812 9.621094 1.710938 9.628906 C 2.210938 9.632812 2.503906 9.628906 2.558594 9.609375 C 2.605469 9.597656 2.671875 9.554688 2.703125 9.511719 C 2.765625 9.441406 2.765625 9.441406 2.765625 8.996094 C 2.765625 8.5 2.75 8.445312 2.609375 8.378906 C 2.496094 8.324219 1.03125 8.328125 0.917969 8.382812 Z M 2.414062 8.988281 L 2.414062 9.28125 L 1.125 9.28125 L 1.125 8.695312 L 2.414062 8.695312 Z M 2.414062 8.988281 "/>
<path style=" stroke:none;fill-rule:nonzero;fill:rgb(0%,0%,0%);fill-opacity:1;" d="M 3.140625 8.386719 C 2.996094 8.457031 2.976562 8.535156 2.976562 8.984375 C 2.976562 9.417969 2.996094 9.5 3.109375 9.574219 C 3.167969 9.617188 3.21875 9.621094 3.664062 9.621094 L 4.152344 9.621094 L 4.234375 9.535156 L 4.3125 9.445312 L 4.3125 9 C 4.3125 8.339844 4.316406 8.34375 3.652344 8.34375 C 3.289062 8.34375 3.210938 8.351562 3.140625 8.386719 Z M 3.960938 8.988281 L 3.960938 9.28125 L 3.328125 9.28125 L 3.328125 8.695312 L 3.960938 8.695312 Z M 3.960938 8.988281 "/>
<path style=" stroke:none;fill-rule:nonzero;fill:rgb(0%,0%,0%);fill-opacity:1;" d="M 4.722656 8.375 C 4.566406 8.445312 4.558594 8.464844 4.550781 8.960938 C 4.542969 9.402344 4.542969 9.414062 4.597656 9.492188 C 4.679688 9.613281 4.761719 9.628906 5.222656 9.628906 C 5.664062 9.632812 5.742188 9.617188 5.832031 9.503906 C 5.878906 9.441406 5.882812 9.414062 5.882812 8.996094 C 5.882812 8.339844 5.886719 8.34375 5.222656 8.34375 C 4.917969 8.347656 4.773438 8.355469 4.722656 8.375 Z M 5.53125 8.988281 L 5.53125 9.28125 L 4.898438 9.28125 L 4.898438 8.695312 L 5.53125 8.695312 Z M 5.53125 8.988281 "/>
<path style=" stroke:none;fill-rule:nonzero;fill:rgb(0%,0%,0%);fill-opacity:1;" d="M 6.265625 8.382812 C 6.132812 8.449219 6.117188 8.5 6.117188 8.996094 C 6.117188 9.414062 6.121094 9.441406 6.167969 9.503906 C 6.257812 9.617188 6.335938 9.632812 6.777344 9.628906 C 7.238281 9.628906 7.320312 9.613281 7.402344 9.492188 C 7.457031 9.414062 7.457031 9.402344 7.449219 8.960938 C 7.441406 8.464844 7.433594 8.445312 7.273438 8.375 C 7.160156 8.328125 6.367188 8.332031 6.265625 8.382812 Z M 7.101562 8.988281 L 7.101562 9.28125 L 6.46875 9.28125 L 6.46875 8.695312 L 7.101562 8.695312 Z M 7.101562 8.988281 "/>
<path style=" stroke:none;fill-rule:nonzero;fill:rgb(0%,0%,0%);fill-opacity:1;" d="M 7.832031 8.382812 C 7.699219 8.449219 7.6875 8.5 7.6875 9 L 7.6875 9.445312 L 7.765625 9.535156 L 7.847656 9.621094 L 8.335938 9.621094 C 9.027344 9.621094 9.023438 9.625 9.023438 8.984375 C 9.023438 8.359375 9.007812 8.34375 8.34375 8.34375 C 7.992188 8.34375 7.894531 8.351562 7.832031 8.382812 Z M 8.671875 8.988281 L 8.671875 9.28125 L 8.039062 9.28125 L 8.039062 8.695312 L 8.671875 8.695312 Z M 8.671875 8.988281 "/>
<path style=" stroke:none;fill-rule:nonzero;fill:rgb(0%,0%,0%);fill-opacity:1;" d="M 9.382812 8.382812 C 9.25 8.449219 9.234375 8.5 9.234375 8.996094 C 9.234375 9.441406 9.234375 9.441406 9.296875 9.511719 C 9.328125 9.554688 9.394531 9.597656 9.441406 9.609375 C 9.496094 9.628906 9.789062 9.632812 10.289062 9.628906 C 11.117188 9.621094 11.109375 9.621094 11.195312 9.484375 C 11.234375 9.417969 11.238281 9.359375 11.238281 8.988281 C 11.238281 8.3125 11.285156 8.34375 10.226562 8.34375 C 9.589844 8.34375 9.445312 8.351562 9.382812 8.382812 Z M 10.875 8.988281 L 10.875 9.28125 L 9.585938 9.28125 L 9.585938 8.695312 L 10.875 8.695312 Z M 10.875 8.988281 "/>
<path style=" stroke:none;fill-rule:nonzero;fill:rgb(0%,0%,0%);fill-opacity:1;" d="M 0.972656 10.046875 C 0.894531 10.070312 0.824219 10.125 0.792969 10.203125 C 0.769531 10.257812 0.761719 10.394531 0.761719 10.6875 C 0.761719 11.050781 0.765625 11.105469 0.804688 11.171875 C 0.882812 11.300781 0.921875 11.308594 1.4375 11.308594 C 2.113281 11.308594 2.109375 11.3125 2.109375 10.671875 C 2.109375 10.046875 2.09375 10.027344 1.441406 10.035156 C 1.210938 10.035156 1 10.042969 0.972656 10.046875 Z M 1.757812 10.675781 L 1.757812 10.96875 L 1.125 10.96875 L 1.125 10.382812 L 1.757812 10.382812 Z M 1.757812 10.675781 "/>
<path style=" stroke:none;fill-rule:nonzero;fill:rgb(0%,0%,0%);fill-opacity:1;" d="M 2.585938 10.070312 C 2.433594 10.144531 2.425781 10.179688 2.425781 10.675781 C 2.425781 11.164062 2.433594 11.203125 2.570312 11.277344 C 2.664062 11.324219 9.335938 11.324219 9.429688 11.277344 C 9.566406 11.203125 9.574219 11.164062 9.574219 10.675781 C 9.574219 10.285156 9.570312 10.222656 9.53125 10.167969 C 9.433594 10.023438 9.585938 10.03125 6.71875 10.03125 C 4.824219 10.03125 4.085938 10.039062 4.046875 10.058594 C 3.957031 10.097656 3.925781 10.199219 3.96875 10.285156 C 3.988281 10.320312 4.023438 10.359375 4.042969 10.367188 C 4.0625 10.375 5.242188 10.382812 6.660156 10.382812 L 9.234375 10.382812 L 9.234375 10.96875 L 2.765625 10.96875 L 2.765625 10.382812 L 3.007812 10.382812 C 3.230469 10.382812 3.253906 10.378906 3.300781 10.328125 C 3.371094 10.25 3.367188 10.140625 3.289062 10.082031 C 3.234375 10.035156 3.195312 10.03125 2.945312 10.03125 C 2.734375 10.03125 2.640625 10.042969 2.585938 10.070312 Z M 2.585938 10.070312 "/>
<path style=" stroke:none;fill-rule:nonzero;fill:rgb(0%,0%,0%);fill-opacity:1;" d="M 10.054688 10.070312 C 9.910156 10.144531 9.890625 10.222656 9.890625 10.671875 C 9.890625 11.3125 9.886719 11.308594 10.5625 11.308594 C 11.078125 11.308594 11.117188 11.300781 11.195312 11.171875 C 11.234375 11.105469 11.238281 11.050781 11.238281 10.6875 C 11.238281 10.039062 11.246094 10.046875 10.59375 10.035156 C 10.191406 10.03125 10.128906 10.035156 10.054688 10.070312 Z M 10.875 10.675781 L 10.875 10.96875 L 10.242188 10.96875 L 10.242188 10.382812 L 10.875 10.382812 Z M 10.875 10.675781 "/>
</g>
</svg>
