<?xml version="1.0" encoding="UTF-8"?>
<svg xmlns="http://www.w3.org/2000/svg" xmlns:xlink="http://www.w3.org/1999/xlink" width="12px" height="12px" viewBox="0 0 12 12" version="1.1">
<g id="surface1">
<path style=" stroke:none;fill-rule:nonzero;fill:rgb(0%,0%,0%);fill-opacity:1;" d="M 8.167969 0.0585938 C 8.109375 0.113281 8.109375 0.117188 8.109375 0.597656 C 8.109375 1.078125 8.109375 1.082031 8.167969 1.136719 C 8.242188 1.210938 8.34375 1.210938 8.429688 1.140625 L 8.496094 1.082031 L 8.496094 0.113281 L 8.429688 0.0546875 C 8.34375 -0.015625 8.242188 -0.015625 8.167969 0.0585938 Z M 8.167969 0.0585938 "/>
<path style=" stroke:none;fill-rule:nonzero;fill:rgb(0%,0%,0%);fill-opacity:1;" d="M 9.617188 0.4375 C 9.59375 0.441406 9.417969 0.597656 9.238281 0.78125 C 8.933594 1.085938 8.90625 1.125 8.90625 1.199219 C 8.90625 1.265625 8.921875 1.296875 8.980469 1.347656 C 9.105469 1.453125 9.15625 1.425781 9.535156 1.046875 C 9.820312 0.757812 9.867188 0.699219 9.867188 0.636719 C 9.867188 0.511719 9.746094 0.414062 9.617188 0.4375 Z M 9.617188 0.4375 "/>
<path style=" stroke:none;fill-rule:nonzero;fill:rgb(0%,0%,0%);fill-opacity:1;" d="M 4.804688 0.8125 C 3.976562 0.90625 3.277344 1.230469 2.71875 1.78125 C 2.191406 2.300781 1.859375 2.945312 1.742188 3.679688 C 1.714844 3.871094 1.710938 4.28125 1.714844 6.515625 L 1.726562 9.128906 L 1.785156 9.363281 C 1.871094 9.6875 1.957031 9.914062 2.082031 10.15625 C 2.542969 11.058594 3.402344 11.707031 4.425781 11.933594 C 4.617188 11.972656 4.753906 11.984375 5.335938 11.992188 C 5.785156 12 6.105469 11.996094 6.261719 11.976562 C 7.777344 11.804688 8.960938 10.699219 9.25 9.183594 C 9.289062 8.980469 9.292969 8.773438 9.292969 6.410156 C 9.292969 3.558594 9.300781 3.675781 9.125 3.144531 C 8.792969 2.121094 7.972656 1.300781 6.957031 0.972656 C 6.523438 0.832031 6.394531 0.816406 5.601562 0.808594 C 5.207031 0.804688 4.847656 0.804688 4.804688 0.8125 Z M 6.125 1.214844 C 6.1875 1.230469 6.183594 1.234375 5.941406 1.476562 L 5.695312 1.722656 L 5.695312 1.195312 L 5.878906 1.199219 C 5.976562 1.199219 6.085938 1.207031 6.125 1.214844 Z M 4.898438 2.203125 L 4.898438 3.1875 L 4.804688 3.203125 C 4.648438 3.226562 4.472656 3.347656 4.390625 3.484375 C 4.351562 3.554688 4.3125 3.648438 4.304688 3.695312 C 4.296875 3.746094 4.289062 4.097656 4.289062 4.480469 L 4.289062 5.179688 L 2.109375 5.179688 L 2.109375 4.609375 C 2.109375 4.296875 2.121094 3.953125 2.136719 3.84375 C 2.296875 2.535156 3.289062 1.488281 4.582031 1.257812 C 4.683594 1.238281 4.796875 1.222656 4.835938 1.222656 L 4.898438 1.21875 Z M 6.859375 1.367188 C 7.066406 1.4375 7.265625 1.527344 7.265625 1.542969 C 7.265625 1.550781 6.929688 1.894531 6.519531 2.304688 C 5.957031 2.867188 5.765625 3.042969 5.734375 3.03125 C 5.699219 3.019531 5.695312 2.972656 5.695312 2.652344 L 5.695312 2.285156 L 6.179688 1.800781 C 6.449219 1.53125 6.671875 1.3125 6.683594 1.3125 C 6.6875 1.3125 6.769531 1.339844 6.859375 1.367188 Z M 7.882812 1.957031 C 7.980469 2.042969 8.0625 2.121094 8.0625 2.128906 C 8.0625 2.136719 7.667969 2.539062 7.1875 3.019531 L 6.3125 3.894531 L 6.296875 3.746094 C 6.289062 3.648438 6.261719 3.550781 6.203125 3.4375 L 6.121094 3.269531 L 6.871094 2.515625 C 7.457031 1.929688 7.632812 1.765625 7.660156 1.78125 C 7.683594 1.789062 7.78125 1.871094 7.882812 1.957031 Z M 8.445312 2.628906 C 8.503906 2.722656 8.570312 2.839844 8.59375 2.890625 L 8.632812 2.980469 L 7.523438 4.089844 C 6.710938 4.902344 6.394531 5.203125 6.359375 5.203125 C 6.304688 5.203125 6.304688 5.199219 6.304688 4.847656 L 6.304688 4.488281 L 7.316406 3.476562 C 7.875 2.917969 8.335938 2.460938 8.335938 2.460938 C 8.339844 2.460938 8.386719 2.539062 8.445312 2.628906 Z M 5.664062 3.441406 C 5.777344 3.496094 5.851562 3.582031 5.882812 3.707031 C 5.898438 3.765625 5.90625 4.105469 5.902344 4.648438 C 5.894531 5.613281 5.890625 5.621094 5.707031 5.730469 C 5.511719 5.84375 5.289062 5.792969 5.160156 5.601562 L 5.105469 5.523438 L 5.113281 4.585938 L 5.121094 3.644531 L 5.175781 3.566406 C 5.242188 3.476562 5.390625 3.398438 5.496094 3.398438 C 5.535156 3.398438 5.609375 3.417969 5.664062 3.441406 Z M 8.847656 3.699219 C 8.867188 3.804688 8.882812 3.953125 8.882812 4.015625 L 8.882812 4.136719 L 7.816406 5.203125 L 7.414062 5.203125 C 7.191406 5.203125 7.007812 5.195312 7.007812 5.1875 C 7.007812 5.175781 7.40625 4.769531 7.890625 4.285156 C 8.675781 3.5 8.78125 3.40625 8.796875 3.449219 C 8.804688 3.476562 8.828125 3.589844 8.847656 3.699219 Z M 8.902344 4.949219 L 8.894531 5.191406 L 8.378906 5.207031 L 8.625 4.957031 C 8.757812 4.820312 8.878906 4.710938 8.890625 4.710938 C 8.898438 4.710938 8.902344 4.820312 8.902344 4.949219 Z M 4.355469 5.65625 C 4.433594 5.832031 4.679688 6 4.855469 6 C 4.914062 6 4.984375 6.027344 5.054688 6.070312 C 5.28125 6.214844 5.492188 6.242188 5.75 6.164062 C 5.949219 6.101562 6.136719 5.9375 6.226562 5.738281 L 6.289062 5.601562 L 8.484375 5.601562 L 8.484375 7.261719 C 8.484375 8.644531 8.476562 8.957031 8.449219 9.132812 C 8.328125 9.820312 8.007812 10.421875 7.492188 10.914062 C 7.109375 11.277344 6.757812 11.480469 6.398438 11.546875 C 6.078125 11.605469 4.914062 11.605469 4.59375 11.546875 C 3.472656 11.339844 2.546875 10.519531 2.234375 9.449219 C 2.117188 9.035156 2.109375 8.925781 2.109375 7.199219 L 2.109375 5.601562 L 4.328125 5.601562 Z M 4.355469 5.65625 "/>
<path style=" stroke:none;fill-rule:nonzero;fill:rgb(0%,0%,0%);fill-opacity:1;" d="M 9.152344 1.878906 C 9.078125 1.96875 9.085938 2.070312 9.179688 2.148438 C 9.234375 2.199219 9.253906 2.203125 9.683594 2.203125 C 10.238281 2.203125 10.289062 2.183594 10.289062 1.980469 C 10.289062 1.925781 10.273438 1.890625 10.226562 1.855469 C 10.167969 1.808594 10.136719 1.804688 9.691406 1.804688 L 9.214844 1.804688 Z M 9.152344 1.878906 "/>
</g>
</svg>
